<svg width="32" height="32" viewBox="0 0 32 32" fill="none" xmlns="http://www.w3.org/2000/svg">
<g clip-path="url(#clip0_1_1355)">
<path d="M26 0H6C2.68629 0 0 2.68629 0 6V26C0 29.3137 2.68629 32 6 32H26C29.3137 32 32 29.3137 32 26V6C32 2.68629 29.3137 0 26 0Z" fill="#C1FA6B"/>
<path d="M16.0856 22.7C14.9106 22.7 13.5856 22.775 12.4606 22.875C12.9356 20.925 15.3606 19.55 17.4356 18.05C19.5606 16.5 21.3606 14.8 21.3606 12C21.3606 8.9 19.1106 6.75 15.7106 6.75C12.1356 6.75 9.73562 9.025 9.83562 12.425H12.4356C12.3106 10.35 13.4856 9.05 15.5606 9.05C17.4106 9.05 18.6606 10.125 18.6606 12.025C18.6606 14.05 17.2106 15.225 15.5106 16.45C12.5856 18.5 9.63562 20.3 9.63562 24.375V25H21.5856V22.7H16.0856Z" fill="#121213"/>
</g>
<defs>
<clipPath id="clip0_1_1355">
<rect width="32" height="32" fill="white"/>
</clipPath>
</defs>
</svg>
