<svg width="32" height="32" viewBox="0 0 32 32" fill="none" xmlns="http://www.w3.org/2000/svg">
<g clip-path="url(#clip0_1_1360)">
<path d="M26 0H6C2.68629 0 0 2.68629 0 6V26C0 29.3137 2.68629 32 6 32H26C29.3137 32 32 29.3137 32 26V6C32 2.68629 29.3137 0 26 0Z" fill="#C1FA6B"/>
<path d="M15.8671 25.25C19.4671 25.25 22.0171 23.125 22.0171 19.95C22.0171 18.175 21.1671 16.425 19.0671 15.725V15.575C20.8921 14.775 21.7421 13.275 21.7421 11.525C21.7421 8.475 19.1671 6.75 16.0171 6.75C12.5171 6.75 10.0421 8.975 10.0671 12.45H12.7421C12.7671 10.275 13.9421 9.05 15.9421 9.05C17.6671 9.05 19.0421 9.975 19.0421 11.75C19.0421 13.375 17.9421 14.675 15.7421 14.675H14.3671V16.775H15.8421C17.9671 16.775 19.3171 17.95 19.3171 19.85C19.3171 21.725 17.9421 22.975 15.8921 22.975C13.9421 22.975 12.5421 21.85 12.6171 19.5H9.94209C9.89209 22.95 12.1171 25.25 15.8671 25.25Z" fill="#121213"/>
</g>
<defs>
<clipPath id="clip0_1_1360">
<rect width="32" height="32" fill="white"/>
</clipPath>
</defs>
</svg>
