<svg width="105" height="25" viewBox="0 0 105 25" fill="none" xmlns="http://www.w3.org/2000/svg">
<g opacity="0.98">
<path d="M5.14245 4.78656H8.57174C8.79898 4.78654 9.0169 4.69626 9.17757 4.53558C9.33825 4.37491 9.42852 4.15698 9.42853 3.92975V1.35729C9.42855 1.13006 9.51882 0.912135 9.6795 0.751457C9.84018 0.590778 10.0581 0.500503 10.2853 0.500488H12.8568C13.0841 0.500503 13.302 0.590778 13.4627 0.751457C13.6233 0.912135 13.7136 1.13006 13.7136 1.35729V3.92975C13.7136 4.15699 13.6233 4.37491 13.4627 4.53559C13.302 4.69627 13.0841 4.78654 12.8568 4.78656H10.2853C10.0581 4.78657 9.84018 4.87685 9.6795 5.03753C9.51882 5.19821 9.42855 5.41613 9.42853 5.64336V9.07265C9.42853 9.29989 9.33826 9.51782 9.17758 9.67851C9.01691 9.83919 8.79898 9.92948 8.57174 9.92951H5.14245C4.91522 9.92949 4.6973 9.83921 4.53662 9.67853C4.37593 9.51786 4.28565 9.29994 4.28563 9.0727V5.64336C4.28565 5.41613 4.37593 5.1982 4.53661 5.03753C4.69729 4.87685 4.91522 4.78657 5.14245 4.78656V4.78656Z" fill="#020202"/>
<path d="M4.28607 19.3573V15.928C4.28605 15.7008 4.19577 15.4828 4.03509 15.3222C3.87441 15.1615 3.65649 15.0712 3.42926 15.0712H0.856779C0.629548 15.0712 0.411628 14.9809 0.250953 14.8202C0.0902774 14.6595 5.07992e-06 14.4416 -9.46827e-06 14.2144V11.643C5.07925e-06 11.4157 0.0902779 11.1978 0.250953 11.0371C0.411627 10.8764 0.629546 10.7862 0.856779 10.7861H3.42926C3.6565 10.7862 3.87442 10.8764 4.0351 11.0371C4.19578 11.1978 4.28605 11.4157 4.28607 11.643V14.2144C4.28608 14.4416 4.37636 14.6595 4.53704 14.8202C4.69772 14.9809 4.91564 15.0712 5.14288 15.0712H8.57215C8.79938 15.0712 9.0173 15.1615 9.17797 15.3222C9.33865 15.4828 9.42893 15.7008 9.42896 15.928V19.3573C9.42894 19.5845 9.33867 19.8024 9.17799 19.9631C9.01731 20.1238 8.79938 20.2141 8.57215 20.2141H5.14288C4.91564 20.2141 4.69772 20.1238 4.53704 19.9631C4.37636 19.8024 4.28608 19.5845 4.28607 19.3573V19.3573Z" fill="#020202"/>
<path d="M18.8571 20.2137H15.4278C15.2005 20.2137 14.9826 20.304 14.8219 20.4647C14.6613 20.6254 14.571 20.8433 14.571 21.0705V23.643C14.571 23.8702 14.4807 24.0882 14.32 24.2488C14.1593 24.4095 13.9414 24.4998 13.7142 24.4998H11.1427C10.9155 24.4998 10.6976 24.4095 10.5369 24.2488C10.3762 24.0882 10.2859 23.8702 10.2859 23.643V21.0705C10.2859 20.8433 10.3762 20.6254 10.5369 20.4647C10.6976 20.304 10.9155 20.2137 11.1427 20.2137H13.7142C13.9414 20.2137 14.1593 20.1234 14.32 19.9628C14.4807 19.8021 14.571 19.5842 14.571 19.3569V15.9276C14.571 15.7004 14.6613 15.4825 14.8219 15.3218C14.9826 15.1611 15.2005 15.0708 15.4278 15.0708H18.8571C19.0843 15.0708 19.3022 15.1611 19.4629 15.3218C19.6236 15.4824 19.7138 15.7004 19.7139 15.9276V19.3569C19.7139 19.5841 19.6236 19.8021 19.4629 19.9627C19.3022 20.1234 19.0843 20.2137 18.8571 20.2137V20.2137Z" fill="#020202"/>
<path d="M19.7139 5.64296V9.07224C19.7139 9.29947 19.8042 9.51739 19.9649 9.67806C20.1256 9.83874 20.3435 9.92901 20.5707 9.92903H23.1432C23.3704 9.92904 23.5884 10.0193 23.749 10.18C23.9097 10.3407 24 10.5586 24 10.7858V13.3573C24 13.5845 23.9097 13.8024 23.749 13.9631C23.5884 14.1238 23.3704 14.2141 23.1432 14.2141H20.5707C20.3435 14.2141 20.1256 14.1238 19.9649 13.9631C19.8042 13.8024 19.7139 13.5845 19.7139 13.3573V10.7858C19.7139 10.5586 19.6236 10.3407 19.463 10.18C19.3023 10.0193 19.0843 9.92904 18.8571 9.92903H15.4278C15.2006 9.92902 14.9827 9.83875 14.822 9.67808C14.6613 9.5174 14.571 9.29948 14.571 9.07224V5.64296C14.571 5.41572 14.6613 5.1978 14.8219 5.03712C14.9826 4.87644 15.2005 4.78616 15.4278 4.78613H18.8571C19.0844 4.78615 19.3023 4.87643 19.463 5.03711C19.6236 5.19779 19.7139 5.41572 19.7139 5.64296V5.64296Z" fill="#020202"/>
</g>
<g clip-path="url(#clip0_145_21094)">
<path d="M34 18.054H39.7508C43.6847 18.054 45.8721 15.4609 45.8721 11.6329C45.8721 7.80485 43.7023 5.19405 39.7508 5.19405H34V18.054ZM36.3638 15.9724V7.25799H39.4686C41.6913 7.25799 43.3848 8.43991 43.3848 11.5976C43.3848 14.7023 41.7619 15.9724 39.4686 15.9724H36.3638Z" fill="#121213"/>
<path d="M52.0875 18.2304C54.4867 18.2304 56.2684 16.9779 56.5859 15.1433H54.3632C54.1515 15.9195 53.2871 16.484 52.0699 16.484C50.5352 16.484 49.5297 15.5491 49.5649 13.8732H56.4271C56.4977 13.5733 56.533 13.1499 56.533 12.7442C56.533 10.204 54.8218 8.51047 52.0523 8.51047C49.2298 8.51047 47.3246 10.4333 47.3246 13.3969C47.3246 16.3252 49.2474 18.2304 52.0875 18.2304ZM49.5826 12.3561C49.6355 11.086 50.6057 10.2392 51.9993 10.2392C53.4282 10.2392 54.275 11.0154 54.2926 12.3561H49.5826Z" fill="#121213"/>
<path d="M67.2699 14.7023H65.0295C64.9061 15.6725 64.0417 16.3429 62.8245 16.3429C61.3427 16.3429 60.3371 15.355 60.3371 13.3969C60.3371 11.6152 61.1839 10.398 62.8421 10.398C63.8829 10.398 64.7826 10.8743 65.0119 11.9504H67.2522C67.0582 9.85116 65.2941 8.51047 62.8774 8.51047C59.9667 8.51047 58.0615 10.4509 58.0615 13.3793C58.0615 16.29 59.9667 18.2304 62.8421 18.2304C65.2941 18.2304 67.1288 16.8368 67.2699 14.7023Z" fill="#121213"/>
<path d="M68.8079 7.48732H71.0307V5H68.8079V7.48732ZM68.8079 18.054H71.0307V8.68688H68.8079V18.054Z" fill="#121213"/>
<path d="M73.1192 21H75.3595V16.3429H75.5006C75.9416 17.4366 77.1412 18.2304 78.7641 18.2304C81.2338 18.2304 82.892 16.3958 82.892 13.344C82.892 10.398 81.322 8.51047 78.7818 8.51047C77.2647 8.51047 75.9946 9.25138 75.5006 10.398H75.3595L75.0949 8.68688H73.1192V21ZM75.3595 12.9559C75.3595 11.4741 76.4709 10.398 78.0232 10.398C79.558 10.398 80.5988 11.4035 80.5988 13.3264C80.5988 15.1257 79.6991 16.3605 77.988 16.3605C76.4356 16.3605 75.3595 15.3021 75.3595 13.8026V12.9559Z" fill="#121213"/>
<path d="M84.1033 15.4609C84.1033 17.1367 85.3558 18.2304 87.2257 18.2304C88.6722 18.2304 89.96 17.5424 90.4187 16.5369H90.5421C90.5951 17.6483 91.2654 18.1951 92.3944 18.1951C92.7472 18.1951 93.1706 18.1246 93.541 18.0187V16.4487C93.4528 16.484 93.3117 16.5017 93.2059 16.5017C92.7472 16.5017 92.6766 16.1312 92.6766 15.849V11.5799C92.6766 9.60419 91.4242 8.51047 88.7075 8.51047C86.2026 8.51047 84.5973 9.81588 84.6502 11.774H86.7671C86.7318 10.8743 87.455 10.2569 88.637 10.2569C89.7483 10.2569 90.4363 10.645 90.4363 11.7563V12.2679L87.8255 12.462C85.5499 12.6207 84.1033 13.538 84.1033 15.4609ZM86.3613 15.2492C86.3613 14.473 86.8905 13.9791 88.2136 13.8732L90.4363 13.6792V14.2084C90.4363 15.5491 89.4661 16.5017 88.0019 16.5017C87.0317 16.5017 86.3613 16.0959 86.3613 15.2492Z" fill="#121213"/>
<path d="M104.27 18.054V5H102.03V10.5039H101.906C101.412 9.35722 100.283 8.51047 98.59 8.51047C96.1556 8.51047 94.4974 10.3804 94.4974 13.4322C94.4974 16.3782 96.085 18.2304 98.5723 18.2304C100.054 18.2304 101.377 17.5601 101.906 16.3958H102.03L102.295 18.054H104.27ZM102.03 13.8379C102.03 15.3021 100.971 16.3605 99.3309 16.3605C97.7962 16.3605 96.7906 15.355 96.7906 13.4146C96.7906 11.5799 97.6903 10.398 99.3662 10.398C100.901 10.398 102.03 11.3506 102.03 12.9735V13.8379Z" fill="#121213"/>
</g>
<defs>
<clipPath id="clip0_145_21094">
<rect width="70.2702" height="17" fill="white" transform="translate(34 4)"/>
</clipPath>
</defs>
</svg>
